<?xml version="1.0" encoding="UTF-8"?>
<svg version="1.1" xmlns="http://www.w3.org/2000/svg" width="324" height="342">
<path d="M0 0 C106.92 0 213.84 0 324 0 C324 112.86 324 225.72 324 342 C217.08 342 110.16 342 0 342 C0 229.14 0 116.28 0 0 Z " fill="#FEFEFE" transform="translate(0,0)"/>
<path d="M0 0 C0.66128906 0.09120117 1.32257813 0.18240234 2.00390625 0.27636719 C24.45951553 3.45720647 47.5239914 12.88431488 66 26 C66.9590625 26.67546875 67.918125 27.3509375 68.90625 28.046875 C76.44063717 33.52289866 83.25478594 39.60161433 90 46 C85.37508621 51.55439924 80.44639036 56.68525669 75.3203125 61.77734375 C74.10116653 62.99436729 74.10116653 62.99436729 72.85739136 64.23597717 C70.28228262 66.8055259 67.7037038 69.37155968 65.125 71.9375 C63.36956054 73.68791929 61.61434983 75.438568 59.859375 77.18945312 C55.57555918 81.46229302 51.28889528 85.73225899 47 90 C43.35644973 87.60067975 39.97372019 85.17818013 36.6875 82.3125 C14.97477977 64.88390394 -12.70762538 59.07827868 -40 61 C-65.50591751 63.97611002 -90.86596352 77.84393582 -107.12524414 97.76269531 C-115.44433811 108.49512285 -121.56747632 120.17125359 -126 133 C-127.65 133 -129.3 133 -131 133 C-131 153.79 -131 174.58 -131 196 C-129.35 196 -127.7 196 -126 196 C-125.56429687 196.95519531 -125.12859375 197.91039062 -124.6796875 198.89453125 C-119.16318962 210.91222578 -113.59924834 221.83884737 -105 232 C-104.33097656 232.88751953 -104.33097656 232.88751953 -103.6484375 233.79296875 C-89.10886231 252.56953671 -62.9623152 264.04199189 -40 267 C-13.01000072 269.17296533 15.27583136 262.9197138 36.6875 245.6875 C37.39261719 245.07261719 38.09773437 244.45773438 38.82421875 243.82421875 C41.38830545 241.67443691 44.21591165 239.8560589 47 238 C61.19 252.19 75.38 266.38 90 281 C65.07221929 310.08241082 25.75980579 325.8699817 -11.6875 329.625 C-41.18891738 331.74879314 -70.13681224 327.76551099 -97 315 C-97.69254883 314.67161133 -98.38509766 314.34322266 -99.09863281 314.00488281 C-116.0098409 305.83255509 -130.61261949 295.11267366 -144 282 C-144.80824219 281.24203125 -145.61648437 280.4840625 -146.44921875 279.703125 C-171.80409808 255.45447949 -187.97533929 219.55656958 -192 185 C-192.12890625 183.96359375 -192.2578125 182.9271875 -192.390625 181.859375 C-195.62054599 150.75013597 -190.43268865 120.19701054 -177 92 C-176.68836914 91.3409668 -176.37673828 90.68193359 -176.05566406 90.00292969 C-168.25921758 73.80777154 -157.53204836 59.79459127 -145 47 C-144.24203125 46.19175781 -143.4840625 45.38351563 -142.703125 44.55078125 C-106.19988954 6.3822522 -51.1027042 -7.55035264 0 0 Z " fill="#EA4335" transform="translate(194,8)"/>
<path d="M0 0 C3.68311552 2.42813733 7.14303702 4.88948929 10.5 7.75 C31.88599726 24.96781189 58.37413971 31.38509558 85.38964844 28.76855469 C105.04665624 26.36348196 124.78579903 18.93816062 139.82421875 5.82421875 C142.38830545 3.67443691 145.21591165 1.8560589 148 0 C162.19 14.19 176.38 28.38 191 43 C166.07221929 72.08241082 126.75980579 87.8699817 89.3125 91.625 C59.81108262 93.74879314 30.86318776 89.76551099 4 77 C3.30745117 76.67161133 2.61490234 76.34322266 1.90136719 76.00488281 C-15.00250371 67.83610078 -29.62168737 57.12237969 -43 44 C-38.37508621 38.44560076 -33.44639036 33.31474331 -28.3203125 28.22265625 C-27.50754852 27.41130722 -26.69478455 26.59995819 -25.85739136 25.76402283 C-23.28228262 23.1944741 -20.7037038 20.62844032 -18.125 18.0625 C-16.36956054 16.31208071 -14.61434983 14.561432 -12.859375 12.81054688 C-8.57555918 8.53770698 -4.28889528 4.26774101 0 0 Z " fill="#34A853" transform="translate(93,246)"/>
<path d="M0 0 C3.35999018 1.45868754 5.55203106 3.30868948 8.12597656 5.89892578 C9.32676849 7.09994431 9.32676849 7.09994431 10.55181885 8.32522583 C11.40612488 9.18985443 12.26043091 10.05448303 13.140625 10.9453125 C14.02280701 11.8303244 14.90498901 12.7153363 15.81390381 13.62716675 C18.15194543 15.97450131 20.48555874 18.32606785 22.81713867 20.67980957 C25.19996526 23.08313927 27.58850348 25.48077767 29.9765625 27.87890625 C34.65631862 32.58071467 39.33031867 37.28818664 44 42 C42.24181489 45.70118226 39.93308435 48.69938073 37.375 51.875 C29.18020205 62.32719916 23.34206137 73.43307239 19 86 C17.35 86 15.7 86 14 86 C14 106.79 14 127.58 14 149 C15.65 149 17.3 149 19 149 C19.43570313 149.95519531 19.87140625 150.91039062 20.3203125 151.89453125 C25.83858611 163.91609421 31.41846563 174.82028514 40 185 C41.33730725 186.66347975 42.67171234 188.32930929 44 190 C42.54131246 193.35999018 40.69131052 195.55203106 38.10107422 198.12597656 C37.3003952 198.92650452 36.49971619 199.72703247 35.67477417 200.55181885 C34.81014557 201.40612488 33.94551697 202.26043091 33.0546875 203.140625 C32.1696756 204.02280701 31.2846637 204.90498901 30.37283325 205.81390381 C28.02549869 208.15194543 25.67393215 210.48555874 23.32019043 212.81713867 C20.91686073 215.19996526 18.51922233 217.58850348 16.12109375 219.9765625 C11.41928533 224.65631862 6.71181336 229.33031867 2 234 C-17.21311403 225.04198692 -30.81111803 194.21862226 -37.8125 175.375 C-52.76921752 133.6067626 -51.91386369 87.50144592 -33.01464844 47.12988281 C-32.67981445 46.42702148 -32.34498047 45.72416016 -32 45 C-31.53255371 44.0114502 -31.53255371 44.0114502 -31.05566406 43.00292969 C-23.26325949 26.81616759 -12.53919864 12.78375748 0 0 Z " fill="#FABC06" transform="translate(49,55)"/>
<path d="M0 0 C55.11 0 110.22 0 167 0 C167 20.79 167 41.58 167 63 C111.89 63 56.78 63 0 63 C0 42.21 0 21.42 0 0 Z " fill="#4285F4" transform="translate(63,141)"/>
</svg>
